<svg xmlns="http://www.w3.org/2000/svg" viewBox="0 0 99.99994 100"><title>Profile 4</title><path d="M99.99851,49.99854a49.86652,49.86652,0,0,1-16.6344,37.23981c-.07306.06567-.14612.13138-.219.18978-.64241.5693-1.29925,1.124-1.97819,1.65686v.0073a50.00557,50.00557,0,0,1-62.08565.2044v-.00731c-.562-.44523-1.11678-.89781-1.6569-1.36492-.08037-.06571-.15325-.13138-.23362-.19709A49.99877,49.99877,0,1,1,99.99851,49.99854Z" fill="#ffebfa"/><path d="M81.15875,89.0879v.00731a50.00577,50.00577,0,0,1-62.08583.20435v-.00731l2.48179-1.27733c.05114-.02918.10941-.05836.16056-.08759.51089-.26275,1.00718-.54012,1.50364-.83936.17517-.0949.35034-.2044.52551-.3139.24075-.13864.47437-.29194.708-.44523.23362-.146.45976-.29194.68607-.45985.23362-.14594.45993-.30655.68607-.47441A34.70324,34.70324,0,0,0,31.912,79.84c.66415-.7737,1.29925-1.56927,1.89052-2.40137a35.12811,35.12811,0,0,0,1.93418-3.00721,33.68786,33.68786,0,0,0,2.21894-4.62762c.39418-1.00723.73721-2.04373,1.03641-3.08749a1.04043,1.04043,0,0,0,.03653-.11676c.095-.31386.17517-.62776.25554-.94161.05827-.19705.10941-.40875.15325-.6131.05114-.2117.0948-.42335.13864-.635.07306-.29929.13133-.59853.18247-.90508.00731-.0073.00731-.0073,0-.01461.05115-.23357.095-.47446.13134-.71529l1.16061-7.05092.2117-1.29194.219-1.37949H59.13755l.438,2.67143,1.16774,7.05092c.03654.24083.08037.47441.13134.71529v.00731c.18978,1.05837.438,2.09482.7226,3.11666a34.60343,34.60343,0,0,0,5.23354,10.82452c.59127.8248,1.21889,1.62767,1.89034,2.40137a33.864,33.864,0,0,0,4.759,4.55465c.43071.35034.86855.67881,1.32118,1,.45262.32847.91238.635,1.37962.93426.27.17517.53994.35038.81009.51094.2044.12407.40879.24819.61319.36495.3065.18248.62762.35765.94143.52556.17535.10215.35782.18973.53281.28463Z" fill="#f98bd5"/><path d="M58.40764,66.17615c-.32842.71529-4.10946,8.518-12.6201,9.89752a16.54552,16.54552,0,0,1-10.05081-1.64229,33.68786,33.68786,0,0,0,2.21894-4.62762c.39418-1.00723.73721-2.04373,1.03641-3.08749a1.04043,1.04043,0,0,0,.03653-.11676c.08749-.31386.17517-.62045.25554-.94161.05827-.19705.10941-.40875.15325-.6131.05114-.2117.10211-.42335.13864-.635.07306-.29929.13133-.59853.18247-.90508.00731-.0073.00731-.0073,0-.01461.05115-.23357.095-.47446.13134-.71529l1.16061-7.05092.2117-1.29194H56.22523l1.27,7.60565A36.04927,36.04927,0,0,0,58.40764,66.17615Z" fill="#d4299e"/><path d="M78.548,87.73092a50.00933,50.00933,0,0,1-56.83036.19708c.5109-.2628,1.00719-.54016,1.50365-.83941.175-.09489.35034-.20435.52551-.31385.24075-.13868.47437-.292.708-.44523.23344-.146.45975-.292.68607-.45985.23362-.146.45975-.30659.68607-.47445a34.70293,34.70293,0,0,0,6.08747-5.55457c.66415-.7737,1.29926-1.56932,1.89052-2.40138a39.08224,39.08224,0,0,0,6.89027,2.40868,39.89593,39.89593,0,0,0,26.138-2.40868c.59109.82475,1.21888,1.62768,1.89034,2.40138a33.86648,33.86648,0,0,0,4.759,4.5546c.43071.35034.86854.67881,1.32117,1,.45245.32846.91238.635,1.37945.9343.27015.17517.54012.35034.81027.5109.20439.12411.40879.24818.613.36495C77.91308,87.38784,78.23419,87.56305,78.548,87.73092Z" fill="#fff"/><path d="M79.08289,88.01205,81.163,89.085v.0073a50.00555,50.00555,0,0,1-62.08564.2044v-.00731l2.4816-1.27733c.56205-.292,1.11678-.59853,1.66421-.927.17517-.10219.35034-.20435.52551-.31385.23362-.146.47455-.292.708-.44523.22631-.146.45993-.29929.68607-.45985.23362-.15329.45993-.31385.68624-.47445a34.82764,34.82764,0,0,0,6.06538-5.55458h.02923a39.87181,39.87181,0,0,0,36.78736,0h.029a35.03549,35.03549,0,0,0,4.74439,4.55461c.43071.34308.876.67881,1.32117,1,.45263.32116.91238.635,1.37962.9343.27.17517.54013.35034.8101.51094.20439.12407.40879.24814.61318.36495C78.09014,87.48649,78.5866,87.75655,79.08289,88.01205Z" fill="#ffc63d"/><path d="M50.31957,69.08131h0A12.76261,12.76261,0,0,1,37.55693,56.3187V32.18826c0-7.04859,5.714,1.09486,12.76261,1.09486h0c7.0486,0,12.76262-11.66541,12.76262-4.61681V56.3187A12.76261,12.76261,0,0,1,50.31957,69.08131Z" fill="#f98bd5"/><path d="M36.16957,32.18826V57.98905A14.28135,14.28135,0,0,0,50.45092,72.2704h0A14.28135,14.28135,0,0,0,64.7323,57.98905V23.22614a7.32247,7.32247,0,0,0-7.32247-7.32247ZM59.96749,57.87947h-.41563a2.06046,2.06046,0,0,1-2.06045-2.06558h0A2.06044,2.06044,0,0,0,55.431,53.7483H46.2553a2.06046,2.06046,0,0,0-2.06046,2.06046V55.819a2.06045,2.06045,0,0,1-2.06045,2.06046h-1.2A2.06045,2.06045,0,0,1,38.87393,55.819V33.06763a2.05054,2.05054,0,0,1,2.05054-2.05054H59.9774A2.05054,2.05054,0,0,1,62.028,33.06763V55.819A2.06045,2.06045,0,0,1,59.96749,57.87947Z" fill="#3f4758"/><circle cx="56.10262" cy="42.56695" r="1.39591" fill="#a4247b"/><circle cx="44.53649" cy="42.56695" r="1.39591" fill="#a4247b"/><path d="M46.98468,55.71913h7.722a0,0,0,0,1,0,0v.45967a3.861,3.861,0,0,1-3.861,3.861h0a3.861,3.861,0,0,1-3.861-3.861v-.45967A0,0,0,0,1,46.98468,55.71913Z" fill="#fff"/><path d="M49.99986,3.64654A46.353,46.353,0,0,1,80.92515,84.5274l-.06445.05847-.06861.05506-.06567.05835c-.63648.56408-1.22876,1.0603-1.81079,1.51721l-.85864.67834a46.3644,46.3644,0,0,1-56.23462-.08606l-.477-.3778c-.58692-.46485-1.08912-.87854-1.53565-1.26465l-.03833-.03308-.03613-.02954-.05347-.04554c-.04321-.03711-.08667-.07409-.1311-.11108A46.35244,46.35244,0,0,1,49.99986,3.64654m0-3.64648A49.99891,49.99891,0,0,0,17.19077,87.72735c.08033.06568.15333.13135.23365.19715.54.467,1.09472.91967,1.65674,1.36486v.00733a50.00557,50.00557,0,0,0,62.08569-.20435V89.085c.679-.53284,1.33594-1.08753,1.97827-1.65686.07275-.05847.146-.12415.219-.18982A49.99964,49.99964,0,0,0,49.99986.00006Z" fill="#ff74db"/><ellipse cx="64.56351" cy="27.6885" rx="3.89689" ry="3.85267" transform="translate(29.41227 88.51194) rotate(-83.18782)" fill="#3f4758"/><path d="M59.50956,28.66228s3.64451,3.24332,4.325,6.4a29.72854,29.72854,0,0,1,.59976,6.2224s2.49326-4.44894,2.52963-7.52-3.3461-7.95446-3.3461-7.95446Z" fill="#3f4758"/><path d="M49.15537,18.23268a9.44373,9.44373,0,0,1,9.1002-5.63194c4.65416.32907,7.82487,4.44268,8.36183,8.01878.82615,5.502-4.381,11.05863-9.46579,12.84214-7.47112,2.62049-13.78549-3.21765-17.58237.522a11.96017,11.96017,0,0,0-2.94484,5.98469c-.38779,2.216.04145,3.80365-.34724,3.90287-.5282.13485-1.96039-2.63549-2.40429-5.60226a14.71625,14.71625,0,0,1,.06637-4.70543,5.91922,5.91922,0,0,1-.62886-1.96629c-.4088-3.10253,1.88854-5.5149,2.28931-5.93576,3.33669-3.50379,8.715-2.33164,9.07014-2.24847Z" fill="#3f4758"/><ellipse cx="47.56086" cy="21.7328" rx="3.89689" ry="3.85267" transform="translate(20.34005 66.38006) rotate(-83.18782)" fill="#3f4758"/><path d="M0,0V100H99.99994V0ZM80.89622,84.48847c-.06736.06081-.13507.12167-.20279.17575-.59483.52725-1.2032,1.04095-1.83189,1.53439v.00677a46.309,46.309,0,0,1-57.49612.18929V86.3879c-.52069-.41231-1.03427-.83144-1.53465-1.264-.07449-.06086-.14185-.12167-.21634-.18253a46.30244,46.30244,0,1,1,61.28179-.45289Z" fill="#ff74db"/></svg>